:SAMPLES-PER-SECOND 30
:FULLY-SPECIFIED
:DEGREES
143
root  -70.3553 41.7462 -6.30021 -159.559 -88.2408 159.742
RightUpLeg  0.778362 -7.64923 -5.38498
RightLeg  2.81876 -2.05581 3.00227
RightFoot  -1.00999 0.0668766 -0.815304
RightToes  1.74622e-010 0 -3.6325e-017
Spine  1.2964 -0.245253 4.5396
Spine1  2.25872 0.742113 -4.9677
HEad  -13.5315 3.46569 -0.810608
LeftShoulder1  2.55836 -5.46549 -22.1383
LeftArm  -19.5003 19.274 -9.01753
LeftForeArm  17.7877 -12.1922 -1.58879
LeftHand  -0.244104 0.0205437 5.32207
RightShoulder  2.99098 5.60521 26.781
RightArm  -18.0636 -13.6245 5.65485
RightForeArm  -2.82012 5.16007 3.50722
RightHand  -0.965604 3.01119 -13.5098
LeftUpLeg  -1.57758 5.4024 4.20813
LeftLeg  0.249047 8.90786 -4.09512
LeftFoot  1.29994 0.0638415 -0.647624
LeftToes  -5.82109e-011 8.55049e-011 -1.09726e-011
144
root  -70.5767 41.7443 -6.23805 -160.823 -87.9836 161.23
RightUpLeg  0.938158 -7.64832 -5.51998
RightLeg  2.64853 -1.77889 2.92752
RightFoot  -1.19058 0.0423846 -0.568225
RightToes  1.74622e-010 0 -3.6325e-017
Spine  0.879216 -0.350977 4.39282
Spine1  2.10025 0.681863 -5.31117
HEad  -12.9298 3.84922 -0.324547
LeftShoulder1  1.9185 -4.32314 -17.8269
LeftArm  -20.0552 19.0026 -6.70789
LeftForeArm  17.8069 -12.4246 -1.37233
LeftHand  -0.244104 0.0205437 5.32207
RightShoulder  2.42866 4.71404 23.3505
RightArm  -19.6162 -12.5659 2.89067
RightForeArm  -2.29297 4.6827 2.90929
RightHand  -0.863102 2.46365 -12.9349
LeftUpLeg  -1.45512 5.37381 4.07285
LeftLeg  0.296614 9.19583 -4.11784
LeftFoot  1.00259 0.0386248 -0.413297
LeftToes  -5.82109e-011 8.55049e-011 -1.09726e-011
145
root  -70.7832 41.7446 -6.19204 -161.635 -87.5625 162.41
RightUpLeg  0.814343 -7.59609 -5.62293
RightLeg  2.6012 -1.42875 2.80368
RightFoot  -1.36531 0.0273369 -0.4196
RightToes  1.74622e-010 0 -3.6325e-017
Spine  0.43881 -0.468605 4.11566
Spine1  1.74676 0.595679 -5.62941
HEad  -12.1763 4.39205 0.163135
LeftShoulder1  1.34651 -3.05392 -13.4792
LeftArm  -20.6208 19.1218 -5.0131
LeftForeArm  16.9529 -13.24 -1.36425
LeftHand  -0.244104 0.0205437 5.32207
RightShoulder  1.95275 3.81936 20.2769
RightArm  -16.688 -11.261 -0.139819
RightForeArm  -8.23941 5.26285 4.29014
RightHand  -0.940505 2.26775 -14.3966
LeftUpLeg  -1.45544 5.26497 3.87354
LeftLeg  0.267896 9.72056 -4.09836
LeftFoot  0.768102 0.0271515 -0.305379
LeftToes  -5.82109e-011 8.55049e-011 -1.09726e-011
146
root  -70.9631 41.7483 -6.14733 -162.777 -87.2448 163.793
RightUpLeg  0.789187 -7.55108 -5.68268
RightLeg  2.56771 -1.23706 2.71289
RightFoot  -1.47196 0.0187601 -0.333302
RightToes  1.74622e-010 0 -3.6325e-017
Spine  0.419982 -0.617272 3.9067
Spine1  1.11202 0.457694 -5.85659
HEad  -11.3589 4.86663 0.546568
LeftShoulder1  0.895222 -1.74191 -9.64586
LeftArm  -20.9189 19.102 -3.9867
LeftForeArm  13.2512 -14.0109 -1.64873
LeftHand  -0.244104 0.0205437 5.32207
RightShoulder  1.55506 2.96064 17.4577
RightArm  -17.3096 -9.89361 -2.1238
RightForeArm  -10.0959 5.8597 4.41614
RightHand  -0.997421 2.41314 -14.9827
LeftUpLeg  -1.38966 5.14696 3.72604
LeftLeg  0.282844 10.138 -4.01866
LeftFoot  0.44085 0.0305834 -0.365819
LeftToes  -5.82109e-011 8.55049e-011 -1.09726e-011
147
root  -71.1199 41.7539 -6.09888 -164.162 -87.1002 165.214
RightUpLeg  1.00701 -7.57137 -5.74953
RightLeg  2.47559 -1.17316 2.70574
RightFoot  -1.48741 0.0105836 -0.23272
RightToes  1.74622e-010 0 -3.6325e-017
Spine  0.637432 -0.755058 3.87551
Spine1  0.56809 0.328035 -6.03619
HEad  -10.649 5.08409 0.826882
LeftShoulder1  0.592404 -0.603161 -6.68624
LeftArm  -22.6282 18.7799 -3.0847
LeftForeArm  12.4967 -15.0837 -1.68016
LeftHand  -0.244104 0.0205437 5.32207
RightShoulder  1.23111 2.19743 14.7737
RightArm  -21.9269 -8.6865 -2.91404
RightForeArm  -6.01512 5.95761 2.95972
RightHand  -0.963965 2.67336 -14.046
LeftUpLeg  -1.1219 5.05273 3.63998
LeftLeg  0.202898 10.3785 -3.93944
LeftFoot  0.210811 0.0344772 -0.404654
LeftToes  -5.82109e-011 8.55049e-011 -1.09726e-011
148
root  -71.2598 41.7589 -6.05605 -164.567 -87.001 165.596
RightUpLeg  1.2596 -7.65196 -5.88086
RightLeg  2.42272 -1.062 2.73268
RightFoot  -1.52575 0.00338771 -0.120978
RightToes  1.74622e-010 0 -3.6325e-017
Spine  0.655022 -0.833005 3.90936
Spine1  0.477983 0.279752 -6.23671
HEad  -10.1646 5.04497 1.10794
LeftShoulder1  0.412096 0.223412 -4.57379
LeftArm  -24.4194 18.1473 -2.22307
LeftForeArm  12.516 -16.2607 -1.85433
LeftHand  -0.244104 0.0205437 5.32207
RightShoulder  0.994016 1.58469 12.5081
RightArm  -24.9318 -7.63603 -3.6142
RightForeArm  -2.83246 5.97631 2.0059
RightHand  -0.969088 3.19205 -13.2963
LeftUpLeg  -0.774835 4.94122 3.51868
LeftLeg  0.0088615 10.6085 -3.88767
LeftFoot  0.138258 0.0336242 -0.353703
LeftToes  -5.82109e-011 8.55049e-011 -1.09726e-011
149
root  -71.3813 41.7593 -6.03201 -163.225 -86.9449 164.259
RightUpLeg  1.41478 -7.72877 -6.04463
RightLeg  2.48591 -0.961801 2.71838
RightFoot  -1.69214 -0.00172592 -0.0415755
RightToes  1.74622e-010 0 -3.6325e-017
Spine  0.470016 -0.871111 3.84365
Spine1  0.69742 0.285139 -6.42732
HEad  -9.85717 4.9459 1.39574
LeftShoulder1  0.314264 0.703561 -3.03887
LeftArm  -25.1991 17.2051 -1.55215
LeftForeArm  11.8261 -16.8097 -2.05957
LeftHand  -0.244104 0.0205437 5.32207
RightShoulder  0.848184 1.1708 10.9699
RightArm  -23.9658 -6.68537 -4.81837
RightForeArm  -4.24516 5.84502 2.45226
RightHand  -1.04509 3.65604 -13.6085
LeftUpLeg  -0.518736 4.80693 3.34962
LeftLeg  -0.129742 10.7928 -3.84214
LeftFoot  0.0436587 0.0359944 -0.349587
LeftToes  -5.82109e-011 8.55049e-011 -1.09726e-011
150
root  -71.4813 41.7541 -6.02781 -160.893 -87.0339 161.926
RightUpLeg  1.55237 -7.7475 -6.1524
RightLeg  2.58931 -1.05562 2.65339
RightFoot  -1.93262 -0.00583196 0.0221781
RightToes  1.74622e-010 0 -3.6325e-017
Spine  0.426546 -0.93215 3.69091
Spine1  0.751293 0.26277 -6.59856
HEad  -9.48326 4.88209 1.70103
LeftShoulder1  0.263926 0.886244 -1.75121
LeftArm  -25.3984 16.082 -1.34677
LeftForeArm  11.3383 -16.6317 -2.04185
LeftHand  -0.244104 0.0205437 5.32207
RightShoulder  0.782505 0.973397 10.2197
RightArm  -21.7713 -5.75799 -6.11888
RightForeArm  -7.31847 5.50103 3.30258
RightHand  -1.08155 3.48351 -14.3403
LeftUpLeg  -0.374557 4.70563 3.22217
LeftLeg  -0.127595 10.7671 -3.7935
LeftFoot  -0.125554 0.0426644 -0.421801
LeftToes  -5.82109e-011 8.55049e-011 -1.09726e-011
151
root  -71.5652 41.7483 -6.03074 -158.562 -87.2082 159.593
RightUpLeg  1.71081 -7.7237 -6.19305
RightLeg  2.62508 -1.28086 2.57809
RightFoot  -2.12291 -0.0114661 0.109653
RightToes  1.74622e-010 0 -3.6325e-017
Spine  0.61424 -0.993258 3.46979
Spine1  0.493627 0.18596 -6.53923
HEad  -8.96838 4.78414 1.87686
LeftShoulder1  0.254775 0.822964 -1.09661
LeftArm  -25.1378 14.8935 -1.37182
LeftForeArm  11.2366 -15.866 -1.8417
LeftHand  -0.244104 0.0205437 5.32207
RightShoulder  0.738788 0.821292 9.77586
RightArm  -21.5518 -4.71677 -6.65317
RightForeArm  -8.04873 4.80832 3.38335
RightHand  -1.01238 2.69717 -14.6869
LeftUpLeg  -0.272271 4.6478 3.15234
LeftLeg  -0.113869 10.62 -3.75905
LeftFoot  -0.23916 0.0445913 -0.444381
LeftToes  -5.82109e-011 8.55049e-011 -1.09726e-011
152
root  -71.6411 41.7458 -6.02936 -156.811 -87.2998 157.903
RightUpLeg  1.8017 -7.70985 -6.22713
RightLeg  2.59647 -1.41559 2.52593
RightFoot  -2.23543 -0.0170765 0.196756
RightToes  1.74622e-010 0 -3.6325e-017
Spine  0.825724 -1.02228 3.30828
Spine1  0.0846891 0.120656 -6.42434
HEad  -8.37751 4.63804 1.97352
LeftShoulder1  0.279913 0.553178 -1.09599
LeftArm  -23.9904 13.8742 -1.41645
LeftForeArm  11.1095 -14.7431 -1.70698
LeftHand  -0.244104 0.0205437 5.32207
RightShoulder  0.7228 0.75773 9.63877
RightArm  -22.3317 -3.58084 -6.60218
RightForeArm  -6.91805 3.71776 3.01244
RightHand  -0.941928 2.14594 -14.6463
LeftUpLeg  -0.203285 4.58519 3.07432
LeftLeg  -0.178496 10.5879 -3.73568
LeftFoot  -0.283932 0.0414503 -0.410046
LeftToes  -5.82109e-011 8.55049e-011 -1.09726e-011
153
root  -71.7094 41.7443 -6.0238 -156.034 -87.2966 157.249
RightUpLeg  1.8013 -7.71787 -6.26124
RightLeg  2.55804 -1.42951 2.51063
RightFoot  -2.31919 -0.0194777 0.234034
RightToes  1.74622e-010 0 -3.6325e-017
Spine  0.900098 -1.06558 3.30705
Spine1  -0.196353 0.0880717 -6.56179
HEad  -8.07392 4.52874 2.17261
LeftShoulder1  0.308786 0.281285 -1.20321
LeftArm  -22.3542 13.1392 -1.72125
LeftForeArm  11.132 -13.4913 -1.74772
LeftHand  -0.244104 0.0205437 5.32207
RightShoulder  0.777568 0.960473 10.1533
RightArm  -21.8614 -2.62942 -6.61373
RightForeArm  -6.20036 2.76547 3.07079
RightHand  -0.92948 2.16254 -14.428
LeftUpLeg  -0.217327 4.51627 2.9969
LeftLeg  -0.201293 10.6705 -3.69392
LeftFoot  -0.381726 0.043713 -0.441606
LeftToes  -5.82109e-011 8.55049e-011 -1.09726e-011
154
root  -71.7662 41.7404 -6.0208 -156.295 -87.2941 157.62
RightUpLeg  1.79295 -7.71919 -6.25419
RightLeg  2.52387 -1.44069 2.52726
RightFoot  -2.39505 -0.0189303 0.225534
RightToes  1.74622e-010 0 -3.6325e-017
Spine  0.898824 -1.07383 3.17803
Spine1  -0.206552 0.0403685 -6.34857
HEad  -8.19841 4.4393 2.16621
LeftShoulder1  0.361063 -0.0247805 -1.95657
LeftArm  -21.1689 12.4702 -1.93247
LeftForeArm  11.4723 -12.0692 -1.74591
LeftHand  -0.244104 0.0205437 5.32207
RightShoulder  0.829914 1.18668 10.454
RightArm  -19.4808 -2.25757 -6.37432
RightForeArm  -7.13729 2.7236 3.93359
RightHand  -0.893282 1.94868 -14.2644
LeftUpLeg  -0.303227 4.49204 2.98615
LeftLeg  -0.0767759 10.7097 -3.63372
LeftFoot  -0.546963 0.0504719 -0.538112
LeftToes  -5.82109e-011 8.55049e-011 -1.09726e-011
